# xmcd
#
# Track frame offsets: 
#        150
#        18092
#        35974
#        58998
#        73207
#        90808
#        105741
#        127276
#        147120
#        167034
#        185033
#        198386
#        215308
#        232302
#        249821
#        265518
#        281734
#        299402
#
# Disc length: 4199 seconds
#
# Revision: 0
# Processed by: cddbd v1.5.2PL0 Copyright (c) Steve Scherf et al.
# Submitted via: ExactAudioCopy v1.0b3
#
DISCID=19106512
DTITLE=Various Artist - Country Rock Heads Vol.2!
DYEAR=2012
DGENRE=Country
TTITLE0=Chase, Kevin - Let's Get Dirty
TTITLE1=Red, Roxanne And Wildwoodboys,T - Jolene
TTITLE2=Ash, Wishbone - Give It Up
TTITLE3=Foley, Barry P. and Wolfe, Marty - The Girl Who Sang Johnny Cash
TTITLE4=Campbell, Kate - Genesis Blues
TTITLE5=Romero, Micky - Ridin Home
TTITLE6=Cactus Jacks, The - Tennessee
TTITLE7=Bunch, Rebel - Song About A Man
TTITLE8=Charly and Outlaws, The - How Long
TTITLE9=Daniyella - Perfect Little World
TTITLE10=Merritt, Mark - Nothing But The Radio On
TTITLE11=Lennerockers, The - Huddersfield
TTITLE12=Carl, Jolina - I Love It To Love You
TTITLE13=Grand Paradiso, The - Lie To Me
TTITLE14=Cats, Restless - We Are The Restless Cats
TTITLE15=Lonstar, Michael Feat. Wolfe, Mar - Twangy Lead Guitar
TTITLE16=Heat, Texas - On That Train
TTITLE17=Furtado, Tony - Portlandia
EXTD=
EXTT0=
EXTT1=
EXTT2=
EXTT3=
EXTT4=
EXTT5=
EXTT6=
EXTT7=
EXTT8=
EXTT9=
EXTT10=
EXTT11=
EXTT12=
EXTT13=
EXTT14=
EXTT15=
EXTT16=
EXTT17=
PLAYORDER=
